<?xml version="1.0" standalone="no"?>
<!DOCTYPE svg PUBLIC "-//W3C//DTD SVG 20010904//EN"
 "http://www.w3.org/TR/2001/REC-SVG-20010904/DTD/svg10.dtd">
<svg version="1.0" xmlns="http://www.w3.org/2000/svg"
 width="182.000000pt" height="182.000000pt" viewBox="0 0 182.000000 182.000000"
 preserveAspectRatio="xMidYMid meet">
<metadata>
Created by potrace 1.11, written by Peter Selinger 2001-2013
</metadata>
<g transform="translate(0.000000,182.000000) scale(0.100000,-0.100000)"
fill="#000000" stroke="none">
<path d="M576 1132 c-3 -5 1 -32 9 -58 17 -58 18 -61 6 -48 -5 5 -14 26 -20
46 -7 20 -18 42 -26 48 -27 23 -28 -17 -2 -65 14 -25 24 -45 21 -45 -2 0 -23
12 -46 28 -32 21 -53 27 -92 26 -32 0 -55 4 -61 13 -8 11 -14 11 -33 -2 -25
-18 -29 -43 -7 -51 12 -5 7 -15 -20 -47 -19 -22 -35 -49 -35 -58 0 -16 7 -14
51 14 95 59 199 35 283 -65 28 -34 37 -40 47 -31 10 10 8 19 -11 45 l-23 32
21 14 c27 18 28 43 3 66 -12 11 -20 35 -23 67 -5 49 -29 91 -42 71z"/>
<path d="M727 1123 c-9 -8 -9 -140 -1 -170 8 -31 16 -29 34 9 20 43 40 48 40
10 0 -33 22 -48 48 -33 9 5 25 5 38 -1 18 -8 29 -7 49 6 28 19 32 47 9 70 -31
31 -94 12 -94 -29 0 -13 -4 -27 -10 -30 -6 -3 -10 5 -10 19 0 58 -34 76 -63
34 -15 -22 -16 -19 -16 50 -1 66 -7 83 -24 65z m199 -128 c4 -8 0 -22 -7 -31
-11 -13 -14 -13 -27 0 -17 17 -9 46 13 46 9 0 18 -7 21 -15z"/>
<path d="M1325 1022 c4 -20 0 -34 -15 -50 -23 -24 -37 -27 -60 -12 -12 8 -9
10 12 10 32 0 54 30 36 48 -28 28 -88 2 -88 -37 0 -24 31 -51 59 -51 22 0 71
41 71 60 0 5 7 10 15 10 11 0 13 -8 9 -30 -5 -22 -2 -31 10 -36 19 -7 56 22
56 44 0 9 -7 6 -20 -9 l-20 -24 6 38 c6 35 5 37 -19 37 -14 0 -27 7 -31 15
-10 27 -28 17 -21 -13z m-45 -21 c0 -12 -28 -22 -34 -12 -3 5 -3 11 1 15 9 9
33 7 33 -3z"/>
<path d="M972 933 c2 -66 7 -98 16 -101 8 -3 12 12 12 52 0 45 3 54 15 50 23
-9 65 23 65 49 0 34 -19 47 -67 47 l-44 0 3 -97z m76 51 c3 -22 -21 -39 -39
-28 -11 6 -12 38 -2 48 13 13 38 1 41 -20z"/>
<path d="M1092 933 c2 -66 7 -98 16 -101 8 -3 12 12 12 51 0 51 2 55 20 50 42
-11 79 54 48 85 -7 7 -32 12 -55 12 l-44 0 3 -97z m76 53 c4 -21 -14 -37 -35
-29 -14 5 -18 35 -6 47 12 12 38 1 41 -18z"/>
</g>
</svg>
